<?xml version="1.0" encoding="utf-8"?>
<!-- Generator: Adobe Illustrator 16.0.0, SVG Export Plug-In . SVG Version: 6.00 Build 0)  -->
<!DOCTYPE svg PUBLIC "-//W3C//DTD SVG 1.1//EN" "http://www.w3.org/Graphics/SVG/1.1/DTD/svg11.dtd">
<svg version="1.1" xmlns="http://www.w3.org/2000/svg" xmlns:xlink="http://www.w3.org/1999/xlink" x="0px" y="0px" width="774px"
	 height="1224px" viewBox="0 0 774 1224" enable-background="new 0 0 774 1224" xml:space="preserve">
<g id="Supports" display="none">
	<rect x="-3555" y="1152" display="inline" fill="#FFFFFF" stroke="#000000" stroke-miterlimit="10" width="4320" height="72"/>
	<rect x="-3555" display="inline" fill="#FFFFFF" stroke="#000000" stroke-miterlimit="10" width="4320" height="72"/>
	<rect x="693" y="72" display="inline" fill="#FFFFFF" stroke="#000000" stroke-miterlimit="10" width="72" height="1080"/>
	<rect x="-3555" y="72" display="inline" fill="#FFFFFF" stroke="#000000" stroke-miterlimit="10" width="72" height="1080"/>
	<rect x="-819" y="72" display="inline" fill="#FFFFFF" stroke="#000000" stroke-miterlimit="10" width="72" height="1080"/>
	<rect x="-2043" y="72" display="inline" fill="#FFFFFF" stroke="#000000" stroke-miterlimit="10" width="72" height="1080"/>
	<rect x="-45" y="72" display="inline" fill="#FFFFFF" stroke="#000000" stroke-miterlimit="10" width="72" height="1080"/>
	<rect x="-3483" y="576" display="inline" fill="#FFFFFF" stroke="#000000" stroke-miterlimit="10" width="1440" height="72"/>
</g>
<g id="Sections">
	<rect y="0" opacity="0.8" fill="#FFFFFF" stroke="#000000" stroke-miterlimit="10" width="774" height="1224"/>
</g>
<g id="Weapons_control">
	<g id="Panel_mounting_bolts">
		<g>
			<circle display="none" fill="#FFFFFF" stroke="#000000" stroke-miterlimit="10" cx="720" cy="1170" r="10.984"/>
			<circle fill="#FFFFFF" stroke="#000000" stroke-miterlimit="10" cx="720" cy="1170" r="5.669"/>
		</g>
		<g>
			<circle display="none" fill="#FFFFFF" stroke="#000000" stroke-miterlimit="10" cx="17.997" cy="54" r="10.984"/>
			<circle fill="#FFFFFF" stroke="#000000" stroke-miterlimit="10" cx="17.998" cy="54" r="5.669"/>
		</g>
		<g>
			<circle display="none" fill="#FFFFFF" stroke="#000000" stroke-miterlimit="10" cx="720" cy="54" r="10.984"/>
			<circle fill="#FFFFFF" stroke="#000000" stroke-miterlimit="10" cx="720.001" cy="54" r="5.669"/>
		</g>
		<g>
			<circle display="none" fill="#FFFFFF" stroke="#000000" stroke-miterlimit="10" cx="387" cy="1170" r="10.984"/>
			<circle fill="#FFFFFF" stroke="#000000" stroke-miterlimit="10" cx="387" cy="1170" r="5.669"/>
		</g>
		<g>
			<circle display="none" fill="#FFFFFF" stroke="#000000" stroke-miterlimit="10" cx="18" cy="1170" r="10.984"/>
			<circle fill="#FFFFFF" stroke="#000000" stroke-miterlimit="10" cx="18" cy="1170" r="5.669"/>
		</g>
		<g>
			<circle display="none" fill="#FFFFFF" stroke="#000000" stroke-miterlimit="10" cx="387" cy="54" r="10.984"/>
			<circle fill="#FFFFFF" stroke="#000000" stroke-miterlimit="10" cx="387.001" cy="54" r="5.669"/>
		</g>
		<g>
			<circle display="none" fill="#FFFFFF" stroke="#000000" stroke-miterlimit="10" cx="18" cy="612" r="10.984"/>
			<circle fill="#FFFFFF" stroke="#000000" stroke-miterlimit="10" cx="18" cy="612" r="5.669"/>
		</g>
		<g>
			<circle display="none" fill="#FFFFFF" stroke="#000000" stroke-miterlimit="10" cx="720" cy="612" r="10.984"/>
			<circle fill="#FFFFFF" stroke="#000000" stroke-miterlimit="10" cx="720" cy="612" r="5.669"/>
		</g>
		<g>
			<circle display="none" fill="#FFFFFF" stroke="#000000" stroke-miterlimit="10" cx="18" cy="306" r="10.984"/>
			<circle fill="#FFFFFF" stroke="#000000" stroke-miterlimit="10" cx="18" cy="306" r="5.669"/>
		</g>
		<g>
			<circle display="none" fill="#FFFFFF" stroke="#000000" stroke-miterlimit="10" cx="18" cy="918" r="10.984"/>
			<circle fill="#FFFFFF" stroke="#000000" stroke-miterlimit="10" cx="18" cy="918" r="5.669"/>
		</g>
		<g>
			<circle display="none" fill="#FFFFFF" stroke="#000000" stroke-miterlimit="10" cx="720" cy="918" r="10.984"/>
			<circle fill="#FFFFFF" stroke="#000000" stroke-miterlimit="10" cx="720.001" cy="918" r="5.669"/>
		</g>
		<g>
			<circle display="none" fill="#FFFFFF" stroke="#000000" stroke-miterlimit="10" cx="720" cy="306" r="10.984"/>
			<circle fill="#FFFFFF" stroke="#000000" stroke-miterlimit="10" cx="720" cy="306" r="5.669"/>
		</g>
	</g>
	<g id="Bottom_wood_layer" display="none">
		<polygon display="inline" fill="#FFFFFF" stroke="#000000" stroke-miterlimit="10" points="51,943 241,943 241,840 496,840 
			496,943 689,943 689,1100.719 501,1100.719 501,1142 244,1142 244,1100.719 51,1100.719 		"/>
		<polygon display="inline" fill="#FFFFFF" stroke="#000000" stroke-miterlimit="10" points="51,220 316.77,220 316.77,306 
			624.668,306 624.668,483 695,483 695,783 47,783 47,225 47,220.667 47,220 		"/>
	</g>
	<g id="Top_wood_layer">
	</g>
	<g id="Parts">
		<g id="Shields">
			<g id="Shield_lights">
				
					<rect x="274.99" y="919.054" fill="#FFFFFF" stroke="#000000" stroke-linecap="round" stroke-linejoin="round" stroke-miterlimit="10" width="19.843" height="144"/>
				
					<rect x="449.064" y="919.054" fill="#FFFFFF" stroke="#000000" stroke-linecap="round" stroke-linejoin="round" stroke-miterlimit="10" width="19.842" height="144"/>
				<path fill="#FFFFFF" stroke="#000000" stroke-linecap="round" stroke-linejoin="round" stroke-miterlimit="10" d="M294.833,904
					c0,0,0.749-25.709,25.708-25.709s102.459,0,102.459,0S448,879.5,448,904h20.906c0,0,0.094-46-47.656-46s-99.75,0-99.75,0
					s-46.51-3.75-46.51,46H294.833z"/>
				<path fill="#FFFFFF" stroke="#000000" stroke-linecap="round" stroke-linejoin="round" stroke-miterlimit="10" d="
					M449.063,1077.687c0,0-0.749,25.709-25.708,25.709s-102.459,0-102.459,0s-25-1.209-25-25.709H274.99c0,0-0.094,46,47.656,46
					s99.75,0,99.75,0s46.51,3.75,46.51-46H449.063z"/>
			</g>
			<g id="Modulation">
				
					<rect x="531.498" y="966.287" display="none" fill="#FFFFFF" stroke="#000000" stroke-linecap="round" stroke-linejoin="round" stroke-miterlimit="10" width="115.201" height="115.2"/>
				<g id="LWPOLYLINE_15_" display="none">
					
						<path display="inline" fill="none" stroke="#000000" stroke-linecap="round" stroke-linejoin="round" stroke-miterlimit="10" d="
						M530.924,966.287v115.2c0,0.159,0.129,0.288,0.287,0.288s0.287-0.129,0.287-0.288v-115.2c0-0.159-0.129-0.288-0.287-0.288
						S530.924,966.128,530.924,966.287z"/>
				</g>
				<g id="LWPOLYLINE_14_" display="none">
					
						<path display="inline" fill="#FFFFFF" stroke="#000000" stroke-linecap="round" stroke-linejoin="round" stroke-miterlimit="10" d="
						M531.211,1081.775h115.2c0.159,0,0.288-0.129,0.288-0.288s-0.129-0.288-0.288-0.288h-115.2c-0.158,0-0.287,0.129-0.287,0.288
						S531.053,1081.775,531.211,1081.775z"/>
				</g>
				<g id="LWPOLYLINE_13_" display="none">
					
						<path display="inline" fill="#FFFFFF" stroke="#000000" stroke-linecap="round" stroke-linejoin="round" stroke-miterlimit="10" d="
						M646.699,1081.487v-115.2c0-0.159-0.129-0.288-0.288-0.288s-0.288,0.129-0.288,0.288v115.2c0,0.159,0.129,0.288,0.288,0.288
						S646.699,1081.646,646.699,1081.487z"/>
				</g>
				<g id="LWPOLYLINE_12_" display="none">
					
						<path display="inline" fill="none" stroke="#000000" stroke-linecap="round" stroke-linejoin="round" stroke-miterlimit="10" d="
						M646.411,965.999h-115.2c-0.158,0-0.287,0.129-0.287,0.288s0.129,0.288,0.287,0.288h115.2c0.159,0,0.288-0.129,0.288-0.288
						S646.57,965.999,646.411,965.999z"/>
				</g>
				<g id="CIRCLE_10_">
					<path fill="#FFFFFF" stroke="#000000" stroke-linecap="round" stroke-linejoin="round" stroke-miterlimit="10" d="
						M536.564,1070.688c0,2.584,2.096,4.68,4.68,4.68c2.586,0,4.682-2.096,4.682-4.68c0-2.585-2.096-4.681-4.682-4.681
						C538.66,1066.007,536.564,1068.103,536.564,1070.688L536.564,1070.688z"/>
				</g>
				<g id="CIRCLE_9_">
					<path fill="#FFFFFF" stroke="#000000" stroke-linecap="round" stroke-linejoin="round" stroke-miterlimit="10" d="
						M637.365,1070.688c0,2.584,2.096,4.68,4.68,4.68c2.585,0,4.68-2.096,4.68-4.68c0-2.585-2.095-4.681-4.68-4.681
						C639.461,1066.007,637.365,1068.103,637.365,1070.688L637.365,1070.688z"/>
				</g>
				<g id="CIRCLE_8_">
					<path fill="#FFFFFF" stroke="#000000" stroke-linecap="round" stroke-linejoin="round" stroke-miterlimit="10" d="
						M541.787,1013.087c0,27.536,22.322,49.858,49.857,49.858c27.537,0,49.859-22.322,49.859-49.858s-22.322-49.858-49.859-49.858
						C564.109,963.229,541.787,985.551,541.787,1013.087L541.787,1013.087z"/>
				</g>
				<g id="CIRCLE_12_" display="none">
					
						<path display="inline" fill="none" stroke="#000000" stroke-linecap="round" stroke-linejoin="round" stroke-miterlimit="10" d="
						M557.449,1013.087c0,17.32,14.041,31.361,31.361,31.361s31.361-14.041,31.361-31.361s-14.041-31.361-31.361-31.361
						S557.449,995.767,557.449,1013.087L557.449,1013.087z"/>
				</g>
			</g>
			<g id="Frequency_1_">
				<g id="CIRCLE_4_">
					<path fill="#FFFFFF" stroke="#000000" stroke-linecap="round" stroke-linejoin="round" stroke-miterlimit="10" d="
						M92.572,1070.599c0,2.584,2.096,4.68,4.68,4.68c2.586,0,4.682-2.096,4.682-4.68c0-2.585-2.096-4.681-4.682-4.681
						C94.668,1065.918,92.572,1068.014,92.572,1070.599L92.572,1070.599z"/>
				</g>
				<g id="CIRCLE_3_">
					<path fill="#FFFFFF" stroke="#000000" stroke-linecap="round" stroke-linejoin="round" stroke-miterlimit="10" d="
						M193.373,1070.599c0,2.584,2.096,4.68,4.68,4.68c2.585,0,4.68-2.096,4.68-4.68c0-2.585-2.095-4.681-4.68-4.681
						C195.469,1065.918,193.373,1068.014,193.373,1070.599L193.373,1070.599z"/>
				</g>
				<g id="CIRCLE_2_">
					<path fill="#FFFFFF" stroke="#000000" stroke-linecap="round" stroke-linejoin="round" stroke-miterlimit="10" d="
						M98.299,1012.998c0,27.258,22.096,49.354,49.354,49.354s49.355-22.097,49.355-49.354s-22.098-49.354-49.355-49.354
						S98.299,985.74,98.299,1012.998L98.299,1012.998z"/>
				</g>
				<g id="CIRCLE_1_" display="none">
					
						<path display="inline" fill="none" stroke="#000000" stroke-linecap="round" stroke-linejoin="round" stroke-miterlimit="10" d="
						M113.818,1012.998c0,17.122,13.879,31.001,31,31.001c17.122,0,31.002-13.879,31.002-31.001
						c0-17.121-13.88-31.001-31.002-31.001C127.697,981.997,113.818,995.877,113.818,1012.998L113.818,1012.998z"/>
				</g>
			</g>
		</g>
		<g id="Lasers">
			<g id="Charging_LED_2">
				
					<circle id="Bezel_1_" display="none" fill="#FFFFFF" stroke="#000000" stroke-miterlimit="10" cx="476.126" cy="731.81" r="12.756"/>
				<circle id="Mounting_hole_5_" fill="#FFFFFF" stroke="#000000" stroke-miterlimit="10" cx="478.96" cy="731.81" r="11.25"/>
			</g>
			<g id="Charging_LED_1">
				
					<circle id="Bezel_3_" display="none" fill="#FFFFFF" stroke="#000000" stroke-miterlimit="10" cx="476.126" cy="611.999" r="12.756"/>
				<circle id="Mounting_hole_2_" fill="#FFFFFF" stroke="#000000" stroke-miterlimit="10" cx="478.96" cy="611.999" r="11.25"/>
			</g>
			<g id="Square_button">
				
					<rect id="Footprint_14_" x="575.062" y="655.895" display="none" fill="#FFFFFF" stroke="#000000" stroke-miterlimit="10" width="93.543" height="93.542"/>
				<circle id="Hole_16_" fill="#FFFFFF" stroke="#000000" stroke-miterlimit="10" cx="624.667" cy="702.666" r="40.394"/>
			</g>
			<g id="Square_button_1_">
				
					<rect id="Footprint_11_" x="575.063" y="535.201" display="none" fill="#FFFFFF" stroke="#000000" stroke-miterlimit="10" width="93.543" height="93.542"/>
				<circle id="Hole_15_" fill="#FFFFFF" stroke="#000000" stroke-miterlimit="10" cx="624.667" cy="582.855" r="40.394"/>
			</g>
			<g id="Illuminated_toggle_1_">
				
					<rect id="Footprint_10_" x="391.189" y="569.13" display="none" fill="#FFFFFF" stroke="#000000" stroke-miterlimit="10" width="39.685" height="68.031"/>
				<circle id="Hole_11_" fill="#FFFFFF" stroke="#000000" stroke-miterlimit="10" cx="413.865" cy="603.146" r="17.291"/>
			</g>
		</g>
		<g id="Torpedoes">
			<g id="Reload">
				<polygon display="none" fill="#FFFFFF" stroke="#000000" stroke-miterlimit="10" points="277.795,744.565 264.33,719.054 
					277.795,693.542 304.723,693.542 318.188,719.054 304.723,744.565 				"/>
				<polygon display="none" fill="#FFFFFF" stroke="#000000" stroke-miterlimit="10" points="166.284,744.565 152.819,719.054 
					166.284,693.542 193.213,693.542 206.678,719.054 193.213,744.565 				"/>
				
					<circle id="Metal_arcade_button_2_" fill="#FFFFFF" stroke="#000000" stroke-miterlimit="10" cx="182.583" cy="719.054" r="22.677"/>
				
					<circle id="Metal_arcade_button_1_" fill="#FFFFFF" stroke="#000000" stroke-miterlimit="10" cx="294.093" cy="719.054" r="22.677"/>
			</g>
			<g id="Fire_1_">
				
					<circle id="Footprint_8_" display="none" fill="#FFFFFF" stroke="#000000" stroke-miterlimit="10" cx="294.093" cy="603.3" r="46.63"/>
				
					<circle id="Footprint_4_" display="none" fill="#FFFFFF" stroke="#000000" stroke-miterlimit="10" cx="182.583" cy="602.592" r="46.63"/>
				<circle id="Hole_12_" fill="#FFFFFF" stroke="#000000" stroke-miterlimit="10" cx="294.092" cy="602.591" r="39.685"/>
				<circle id="Hole_8_" fill="#FFFFFF" stroke="#000000" stroke-miterlimit="10" cx="182.582" cy="602.592" r="39.685"/>
			</g>
			<g id="Illuminated_toggle">
				
					<rect x="64.573" y="569.13" display="none" fill="#FFFFFF" stroke="#000000" stroke-miterlimit="10" width="39.686" height="68.031"/>
				<circle fill="#FFFFFF" stroke="#000000" stroke-miterlimit="10" cx="87.25" cy="603.146" r="17.292"/>
			</g>
		</g>
		<g id="Targetting_system">
			<g id="Acquired_LED">
				
					<circle id="Bezel" display="none" fill="#FFFFFF" stroke="#000000" stroke-miterlimit="10" cx="569.812" cy="384.47" r="12.756"/>
				<circle id="Mounting_hole_3_" fill="#FFFFFF" stroke="#000000" stroke-miterlimit="10" cx="572.646" cy="384.47" r="11.25"/>
			</g>
			<g id="Arcade_button">
				
					<circle id="Footprint_3_" display="none" fill="#FFFFFF" stroke="#000000" stroke-miterlimit="10" cx="416.345" cy="376.171" r="46.63"/>
				<circle id="Hole_5_" fill="#FFFFFF" stroke="#000000" stroke-miterlimit="10" cx="419.18" cy="375.463" r="39.685"/>
			</g>
			<g id="Small_arcade_joystick_1_">
				
					<rect id="Hole_7_" x="81.866" y="288.18" display="none" fill="#FFFFFF" stroke="#000000" stroke-miterlimit="10" width="212.599" height="175.748"/>
				
					<rect id="Footprint_2_" x="95.037" y="238.692" display="none" fill="#FFFFFF" stroke="#000000" stroke-miterlimit="10" width="184.252" height="274.96"/>
				<g id="Hole_1_">
					<path fill="#FFFFFF" d="M117.996,376.172c0,15.655,12.691,28.347,28.347,28.347h87.307c15.655,0,28.347-12.691,28.347-28.347
						s-12.691-28.347-28.347-28.347h-87.307C130.688,347.825,117.996,360.517,117.996,376.172
						C117.996,376.172,117.996,360.517,117.996,376.172z"/>
					<path fill="none" stroke="#000000" stroke-miterlimit="10" d="M117.996,376.172c0,15.655,12.691,28.347,28.347,28.347h87.307
						c15.655,0,28.347-12.691,28.347-28.347s-12.691-28.347-28.347-28.347h-87.307C130.688,347.825,117.996,360.517,117.996,376.172
						C117.996,376.172,117.996,360.517,117.996,376.172z"/>
				</g>
			</g>
			
				<rect id="NeoPixel_strip_2_" x="97.106" y="152.754" fill="#FFFFFF" stroke="#000000" stroke-miterlimit="10" width="561.6" height="46.8"/>
		</g>
	</g>
</g>
</svg>
